# xmcd
#
# Track frame offsets:
#	150
#	10840
#	26637
#	48782
#	62761
#	76814
#	91455
#	108080
#	122519
#	138874
#
# Disc length: 2297 seconds
#
# Revision: 1
# Processed by: cddbd v1.5.2PL0 Copyright (c) Steve Scherf et al.
# Submitted via: audiograbber 1.83.01
#
DISCID=6e08f70a
DTITLE=The Flare-Up! - Whip 'Em Hard, Whip 'Em Good
DYEAR=2009
DGENRE=Scandirock
TTITLE0=Put It In A Letter
TTITLE1=Vicious Seeds
TTITLE2=Whip 'Em Hard, Whip 'Em Good
TTITLE3=Kid Avenger
TTITLE4=To Kill A Puerto Rican
TTITLE5=The Rudes
TTITLE6=Too Many Zombies
TTITLE7=Little China Boy
TTITLE8=All Them Pretty Dolls
TTITLE9=Sure You're Big Enough?
EXTD=
EXTT0=
EXTT1=
EXTT2=
EXTT3=
EXTT4=
EXTT5=
EXTT6=
EXTT7=
EXTT8=
EXTT9=
PLAYORDER=
